<?xml version="1.0" encoding="UTF-8"?>
<svg width="16px" height="12px" viewBox="0 0 16 12" version="1.1" xmlns="http://www.w3.org/2000/svg" xmlns:xlink="http://www.w3.org/1999/xlink">
    <!-- Generator: Sketch 43 (38999) - http://www.bohemiancoding.com/sketch -->
    <title>googleplus</title>
    <desc>Created with Sketch.</desc>
    <defs></defs>
    <g id="Page-1" stroke="none" stroke-width="1" fill="none" fill-rule="evenodd">
        <g id="googleplus" fill="#FFFFFF">
            <path d="M5.09,5.273 L5.09,7.018 L7.98,7.018 C7.864,7.768 7.107,9.215 5.093,9.215 C3.356,9.215 1.938,7.775 1.938,6 C1.938,4.225 3.353,2.785 5.09,2.785 C6.08,2.785 6.742,3.207 7.12,3.571 L8.502,2.241 C7.615,1.411 6.465,0.911 5.092,0.911 C2.275,0.91 0,3.19 0,6 C0,8.81 2.276,11.09 5.09,11.09 C8.03,11.09 9.978,9.025 9.978,6.116 C9.978,5.782 9.942,5.526 9.898,5.273 L5.09,5.273 Z M16,5.273 L14.545,5.273 L14.545,3.818 L13.09,3.818 L13.09,5.273 L11.636,5.273 L11.636,6.727 L13.091,6.727 L13.091,8.182 L14.551,8.182 L14.551,6.727 L16,6.727 L16,5.273 Z" id="Shape"></path>
        </g>
    </g>
</svg>